<svg width="265" height="265" viewBox="0 0 265 265" fill="none" xmlns="http://www.w3.org/2000/svg">
<path fill-rule="evenodd" clip-rule="evenodd" d="M227.445 118.21C225.828 91.9131 192.237 27.6284 116.083 29.6808C97.4538 30.1827 96.2829 62.5219 89.4166 79.7382C54.8059 77.322 37.6029 100.66 39.3792 125.694C43.0434 177.319 99.0815 223.547 147.39 221.232C166.972 220.292 191.942 214.567 196.952 185.055C200.614 163.486 191.47 159.236 189.369 152.072C201.302 140.092 214.751 129.407 227.445 118.21Z" stroke="#03989E" stroke-width="14.6594" stroke-miterlimit="1.5" stroke-linecap="round" stroke-linejoin="round"/>
<path d="M90.1976 78.1172C85.4952 89.1575 81.3266 100.676 77.8589 112.168" stroke="#03989E" stroke-width="14.6594" stroke-miterlimit="1.5" stroke-linecap="round" stroke-linejoin="round"/>
<path d="M189.518 152.08C180.228 159.387 170.042 165.586 160.749 172.914" stroke="#03989E" stroke-width="14.6594" stroke-miterlimit="1.5" stroke-linecap="round" stroke-linejoin="round"/>
<path d="M46.3372 234.007C57.6855 221.976 66.7582 207.207 77.0711 194.207" stroke="#03989E" stroke-width="14.6594" stroke-miterlimit="1.5" stroke-linecap="round" stroke-linejoin="round"/>
<path d="M112.08 35.6289C110.853 45.9895 114.852 56.1122 119.509 65.1266C131.333 88.0039 155.455 109.851 181.689 114.243" stroke="#03989E" stroke-width="14.6594" stroke-miterlimit="1.5" stroke-linecap="round" stroke-linejoin="round"/>
</svg>
